<svg xmlns="http://www.w3.org/2000/svg" width="36" height="36" fill="none" viewBox="0 0 36 36">
  <g clip-path="url(#clip0_246_247)">
    <path fill="#0F3749" d="M30.773 20.631a1.33 1.33 0 01-1.32 1.32H24.13a1.328 1.328 0 01-1.32-1.32 1.329 1.329 0 011.32-1.32h5.322a1.332 1.332 0 011.32 1.32zm-18.564 0a1.328 1.328 0 01-1.32 1.32H5.566a1.328 1.328 0 01-1.32-1.32 1.33 1.33 0 011.32-1.32h5.323a1.33 1.33 0 011.318 1.32h.002zm-2.76-12.25h17.105l2.099 5.342c-.033 0-.066-.006-.104-.006H7.35l2.1-5.337zm26.52 4.059a1.995 1.995 0 00-2.291-1.641l.012-.002-3.274.534a.871.871 0 00-.142.039l.008-.003L28.173 6H7.824l-2.109 5.367a.918.918 0 00-.13-.035l-3.278-.535a1.998 1.998 0 00-2.279 1.632l-.001.012a1.996 1.996 0 001.632 2.278l.012.002 1.906.313a6.346 6.346 0 00-1.95 4.433v9.137h6.6v-3.45h18.644v3.45h6.6v-4.872a1.67 1.67 0 00.042-.38v-3.879a6.366 6.366 0 00-1.82-4.314l.002.002 2.649-.435a1.994 1.994 0 001.638-2.291l.002.012-.016-.007z"/>
  </g>
  <defs>
    <clipPath id="clip0_246_247">
      <path fill="#fff" d="M0 0h36v36H0z"/>
    </clipPath>
  </defs>
</svg>
